<?xml version="1.0" encoding="UTF-8" standalone="no"?><svg xmlns="http://www.w3.org/2000/svg" xmlns:xlink="http://www.w3.org/1999/xlink" contentScriptType="application/ecmascript" contentStyleType="text/css" height="240px" preserveAspectRatio="none" style="width:788px;height:240px;" version="1.1" viewBox="0 0 788 240" width="788px" zoomAndPan="magnify"><defs/><g><ellipse cx="535.8492" cy="23.742" fill="#F8F8F8" rx="17.8492" ry="13.242" style="stroke: #383838; stroke-width: 0.5;"/><text fill="#000000" font-family="Tahoma, sans-serif" font-size="12" lengthAdjust="spacingAndGlyphs" textLength="21" x="525.3492" y="27.4842">app</text><ellipse cx="498.2046" cy="148.242" fill="#F8F8F8" rx="53.2046" ry="13.242" style="stroke: #383838; stroke-width: 0.5;"/><text fill="#000000" font-family="Tahoma, sans-serif" font-size="12" lengthAdjust="spacingAndGlyphs" textLength="71" x="462.7046" y="151.9842">authenticate</text><ellipse cx="706.9558" cy="212.242" fill="#F8F8F8" rx="28.4558" ry="13.242" style="stroke: #383838; stroke-width: 0.5;"/><text fill="#000000" font-family="Tahoma, sans-serif" font-size="12" lengthAdjust="spacingAndGlyphs" textLength="36" x="688.9558" y="215.9842">config</text><!--MD5=[0e97d9d91dea4392e0c92622756de2e7]
entity _customTypes--><rect fill="#F8F8F8" height="34.4844" rx="3" ry="3" style="stroke: #000000; stroke-width: 0.5;" width="98" x="597" y="131"/><text fill="#000000" font-family="Tahoma, sans-serif" font-size="12" lengthAdjust="spacingAndGlyphs" textLength="78" x="607" y="153.0059">customTypes</text><ellipse cx="743.9056" cy="148.242" fill="#F8F8F8" rx="33.4056" ry="13.242" style="stroke: #383838; stroke-width: 0.5;"/><text fill="#000000" font-family="Tahoma, sans-serif" font-size="12" lengthAdjust="spacingAndGlyphs" textLength="43" x="722.4056" y="151.9842">models</text><!--MD5=[76c35b706b08589f08ee354173f387d2]
entity _models_dishes--><rect fill="#F8F8F8" height="34.4844" rx="3" ry="3" style="stroke: #000000; stroke-width: 0.5;" width="106" x="14" y="195"/><text fill="#000000" font-family="Tahoma, sans-serif" font-size="12" lengthAdjust="spacingAndGlyphs" textLength="86" x="24" y="217.0059">models/dishes</text><!--MD5=[76781664a946daf55f266a3659ab841e]
entity _models_leaders--><rect fill="#F8F8F8" height="34.4844" rx="3" ry="3" style="stroke: #000000; stroke-width: 0.5;" width="110" x="151" y="195"/><text fill="#000000" font-family="Tahoma, sans-serif" font-size="12" lengthAdjust="spacingAndGlyphs" textLength="90" x="161" y="217.0059">models/leaders</text><!--MD5=[918216c45071de63b7814f6489b3c003]
entity _models_promotions--><rect fill="#F8F8F8" height="34.4844" rx="3" ry="3" style="stroke: #000000; stroke-width: 0.5;" width="135" x="289.5" y="195"/><text fill="#000000" font-family="Tahoma, sans-serif" font-size="12" lengthAdjust="spacingAndGlyphs" textLength="115" x="299.5" y="217.0059">models/promotions</text><ellipse cx="533.9558" cy="211.7912" fill="#F8F8F8" rx="56.9558" ry="13.7912" style="stroke: #383838; stroke-width: 0.5;"/><text fill="#000000" font-family="Tahoma, sans-serif" font-size="12" lengthAdjust="spacingAndGlyphs" textLength="80" x="493.9558" y="215.5334">models/users</text><ellipse cx="736.163" cy="85.242" fill="#F8F8F8" rx="29.163" ry="13.242" style="stroke: #383838; stroke-width: 0.5;"/><text fill="#000000" font-family="Tahoma, sans-serif" font-size="12" lengthAdjust="spacingAndGlyphs" textLength="37" x="717.663" y="88.9842">routes</text><ellipse cx="131.9558" cy="84.7912" fill="#F8F8F8" rx="56.9558" ry="13.7912" style="stroke: #383838; stroke-width: 0.5;"/><text fill="#000000" font-family="Tahoma, sans-serif" font-size="12" lengthAdjust="spacingAndGlyphs" textLength="80" x="91.9558" y="88.5334">routes/dishes</text><ellipse cx="262.9548" cy="85.091" fill="#F8F8F8" rx="58.4548" ry="14.091" style="stroke: #383838; stroke-width: 0.5;"/><text fill="#000000" font-family="Tahoma, sans-serif" font-size="12" lengthAdjust="spacingAndGlyphs" textLength="84" x="220.9548" y="88.8331">routes/leaders</text><ellipse cx="404.933" cy="85.0866" fill="#F8F8F8" rx="68.433" ry="16.0866" style="stroke: #383838; stroke-width: 0.5;"/><text fill="#000000" font-family="Tahoma, sans-serif" font-size="12" lengthAdjust="spacingAndGlyphs" textLength="109" x="350.433" y="88.8288">routes/promotions</text><ellipse cx="574.771" cy="84.8542" fill="#F8F8F8" rx="54.771" ry="13.3542" style="stroke: #383838; stroke-width: 0.5;"/><text fill="#000000" font-family="Tahoma, sans-serif" font-size="12" lengthAdjust="spacingAndGlyphs" textLength="74" x="537.771" y="88.5964">routes/users</text><ellipse cx="470.9914" cy="23.742" fill="#F8F8F8" rx="31.9914" ry="13.242" style="stroke: #383838; stroke-width: 0.5;"/><text fill="#000000" font-family="Tahoma, sans-serif" font-size="12" font-weight="bold" lengthAdjust="spacingAndGlyphs" textLength="41" x="450.4914" y="27.4842">server</text><ellipse cx="67.1505" cy="148.1301" fill="#F8F8F8" rx="61.1505" ry="14.6301" style="stroke: #383838; stroke-width: 0.5;"/><text fill="#000000" font-family="Tahoma, sans-serif" font-size="12" lengthAdjust="spacingAndGlyphs" textLength="91" x="21.6505" y="151.8723">services/dishes</text><ellipse cx="206.2284" cy="147.9457" fill="#F8F8F8" rx="62.7284" ry="14.9457" style="stroke: #383838; stroke-width: 0.5;"/><text fill="#000000" font-family="Tahoma, sans-serif" font-size="12" lengthAdjust="spacingAndGlyphs" textLength="95" x="158.7284" y="151.6879">services/leaders</text><ellipse cx="357.0802" cy="148.016" fill="#F8F8F8" rx="73.0802" ry="17.016" style="stroke: #383838; stroke-width: 0.5;"/><text fill="#000000" font-family="Tahoma, sans-serif" font-size="12" lengthAdjust="spacingAndGlyphs" textLength="120" x="297.0802" y="151.7582">services/promotions</text><ellipse cx="633.8309" cy="23.2662" fill="#F8F8F8" rx="64.3309" ry="15.2662" style="stroke: #383838; stroke-width: 0.5;"/><text fill="#000000" font-family="Tahoma, sans-serif" font-size="12" font-weight="bold" lengthAdjust="spacingAndGlyphs" textLength="99" x="584.3309" y="27.0084">services/users</text><!--MD5=[99ee2a9cf1c9ecddc179acce6c8b3601]
link app to authenticate--><path d="M528.632,35.748 C523.241,44.479 516.169,57.067 512,69 C504.947,89.188 501.298,113.614 499.519,129.6912 " fill="none" id="app-&gt;authenticate" style="stroke: #000000; stroke-width: 0.5;"/><polygon fill="#000000" points="498.985,134.805,503.8979,126.269,499.5042,129.832,495.9411,125.4383,498.985,134.805" style="stroke: #000000; stroke-width: 0.5;"/><!--MD5=[2ab22e581e31f1282e9f50ed461f2b47]
link app to _customTypes--><path d="M549.322,32.36 C553.341,34.613 557.801,36.999 562,39 C594.411,54.442 615.199,40.476 637,69 C649.303,85.097 650.354,108.794 649.071,125.84 " fill="none" id="app-&gt;_customTypes" style="stroke: #000000; stroke-width: 0.5;"/><polygon fill="#000000" points="648.608,130.9012,653.4091,122.3018,649.0622,125.9219,645.4421,121.575,648.608,130.9012" style="stroke: #000000; stroke-width: 0.5;"/><!--MD5=[47da4e6cd757ecd79364a03fbe1974e3]
link app to models--><path d="M549.242,32.534 C553.259,34.792 557.738,37.137 562,39 C601.41,56.221 616.563,47.83 654,69 C684.286,86.126 713.643,114.439 730.207,131.8323 " fill="none" id="app-&gt;models" style="stroke: #000000; stroke-width: 0.5;"/><polygon fill="#000000" points="733.74,135.5817,730.4799,126.2881,730.3114,131.9424,724.657,131.7739,733.74,135.5817" style="stroke: #000000; stroke-width: 0.5;"/><!--MD5=[4310d82b442df7db071be166cafab6a0]
link app to routes--><path d="M548.872,32.637 C552.952,34.951 557.559,37.301 562,39 C618.598,60.646 636.87,51.888 695,69 C700.017,70.477 705.308,72.247 710.361,74.046 " fill="none" id="app-&gt;routes" style="stroke: #000000; stroke-width: 0.5;"/><polygon fill="#000000" points="715.315,75.844,708.2195,69.0136,710.6149,74.1383,705.4903,76.5337,715.315,75.844" style="stroke: #000000; stroke-width: 0.5;"/><!--MD5=[582a5cc163f243f8042d7901f6569d6e]
link app to routes/dishes--><path d="M523.249,32.986 C519.174,35.314 514.54,37.585 510,39 C376.582,80.584 334.937,46.573 197,69 C189.755,70.178 182.114,71.692 174.717,73.303 " fill="none" id="app-&gt;routes/dishes" style="stroke: #000000; stroke-width: 0.5;"/><polygon fill="#000000" points="169.642,74.432,179.2958,76.3826,174.5227,73.3464,177.5589,68.5734,169.642,74.432" style="stroke: #000000; stroke-width: 0.5;"/><!--MD5=[9cfc84d14164d1ad6c3c5a353bc61cad]
link app to routes/leaders--><path d="M523.186,32.795 C519.108,35.116 514.488,37.43 510,39 C433.031,65.923 409.014,53.291 329,69 C322.067,70.361 314.751,71.91 307.612,73.484 " fill="none" id="app-&gt;routes/leaders" style="stroke: #000000; stroke-width: 0.5;"/><polygon fill="#000000" points="302.706,74.576,312.3598,76.5266,307.5867,73.4904,310.6229,68.7174,302.706,74.576" style="stroke: #000000; stroke-width: 0.5;"/><!--MD5=[77185ed9e59f4707c8c25eb42c492842]
link app to routes/promotions--><path d="M522.647,32.296 C518.627,34.547 514.175,36.948 510,39 C488.084,49.771 462.96,60.591 442.784,68.921 " fill="none" id="app-&gt;routes/promotions" style="stroke: #000000; stroke-width: 0.5;"/><polygon fill="#000000" points="438.031,70.875,447.876,71.1519,442.6553,68.9736,444.8336,63.7529,438.031,70.875" style="stroke: #000000; stroke-width: 0.5;"/><!--MD5=[bba0a23cbfaa5ea14b8aadba7d643a81]
link app to routes/users--><path d="M543.336,35.691 C549.153,44.566 557.374,57.109 563.982,67.19 " fill="none" id="app-&gt;routes/users" style="stroke: #000000; stroke-width: 0.5;"/><polygon fill="#000000" points="566.89,71.626,565.3006,61.9062,564.1486,67.4446,558.6102,66.2925,566.89,71.626" style="stroke: #000000; stroke-width: 0.5;"/><!--MD5=[80ebf3e134a14a9c8fcaf4e578ab1033]
link authenticate to config--><path d="M529.743,158.4165 C570.397,170.4767 640.218,191.1892 678.988,202.6902 " fill="none" id="authenticate-&gt;config" style="stroke: #000000; stroke-width: 0.5;"/><polygon fill="#000000" points="684.017,204.182,676.5273,197.7864,679.2237,202.7592,674.2508,205.4556,684.017,204.182" style="stroke: #000000; stroke-width: 0.5;"/><!--MD5=[69e7c3e6d0ac319dd2a1181fe877e6d1]
link authenticate to models/users--><path d="M504.941,160.9542 C510.257,170.1087 517.673,182.8811 523.683,193.2312 " fill="none" id="authenticate-&gt;models/users" style="stroke: #000000; stroke-width: 0.5;"/><polygon fill="#000000" points="526.332,197.7945,525.2722,188.0028,523.8214,193.4705,518.3538,192.0197,526.332,197.7945" style="stroke: #000000; stroke-width: 0.5;"/><!--MD5=[93f45a746529616a154f2fddba54c440]
link models to config--><path d="M736.866,160.9542 C731.133,170.5607 723.023,184.151 716.7,194.7457 " fill="none" id="models-&gt;config" style="stroke: #000000; stroke-width: 0.5;"/><polygon fill="#000000" points="714.112,199.0825,722.1594,193.4045,716.6746,194.7891,715.29,189.3043,714.112,199.0825" style="stroke: #000000; stroke-width: 0.5;"/><!--MD5=[0190ce34ac695c236d5e93b8fa4aae9e]
link routes/dishes to authenticate--><path d="M170.017,95.461 C178.841,97.465 188.219,99.442 197,101 C302.844,119.777 331.447,110.652 437,131 C444.599,132.4649 452.653,134.3408 460.33,136.2889 " fill="none" id="routes/dishes-&gt;authenticate" style="stroke: #000000; stroke-width: 0.5;"/><polygon fill="#000000" points="465.575,137.645,457.8626,131.5197,460.7341,136.3936,455.8603,139.2651,465.575,137.645" style="stroke: #000000; stroke-width: 0.5;"/><!--MD5=[9519543a544ae612625ea520920119d3]
link routes/dishes to services/dishes--><path d="M118.532,98.639 C108.861,107.715 95.7198,120.048 85.1282,129.9874 " fill="none" id="routes/dishes-&gt;services/dishes" style="stroke: #000000; stroke-width: 0.5;"/><polygon fill="#000000" points="81.3525,133.5307,90.6524,130.2885,84.9984,130.1091,85.1778,124.4551,81.3525,133.5307" style="stroke: #000000; stroke-width: 0.5;"/><!--MD5=[e9129cb5e9ea2111512af41144a18cb2]
link routes/leaders to authenticate--><path d="M301.026,95.794 C336.283,104.885 390.198,118.81 437,131 C444.059,132.8386 451.575,134.8038 458.833,136.7054 " fill="none" id="routes/leaders-&gt;authenticate" style="stroke: #000000; stroke-width: 0.5;"/><polygon fill="#000000" points="463.807,138.0093,456.1146,131.8589,458.9702,136.7421,454.0871,139.5978,463.807,138.0093" style="stroke: #000000; stroke-width: 0.5;"/><!--MD5=[1011375e12295e0e7139a9c2732b2c2e]
link routes/leaders to services/leaders--><path d="M250.912,98.937 C242.603,107.828 231.471,119.741 222.369,129.4822 " fill="none" id="routes/leaders-&gt;services/leaders" style="stroke: #000000; stroke-width: 0.5;"/><polygon fill="#000000" points="218.863,133.2343,227.9308,129.3905,222.2772,129.5814,222.0862,123.9278,218.863,133.2343" style="stroke: #000000; stroke-width: 0.5;"/><!--MD5=[1ce9b89f32730b39dbc372aab9ecbd10]
link routes/promotions to authenticate--><path d="M427.04,100.456 C441.935,110.226 461.512,123.067 476.329,132.7858 " fill="none" id="routes/promotions-&gt;authenticate" style="stroke: #000000; stroke-width: 0.5;"/><polygon fill="#000000" points="480.764,135.6949,475.4311,127.4148,476.5827,132.9532,471.0443,134.1049,480.764,135.6949" style="stroke: #000000; stroke-width: 0.5;"/><!--MD5=[baee16691d5567c53a0507fc3c4ab706]
link routes/promotions to services/promotions--><path d="M393.135,101.079 C386.932,108.962 379.261,118.71 372.585,127.194 " fill="none" id="routes/promotions-&gt;services/promotions" style="stroke: #000000; stroke-width: 0.5;"/><polygon fill="#000000" points="369.398,131.2439,378.1073,126.6452,372.4902,127.3147,371.8206,121.6977,369.398,131.2439" style="stroke: #000000; stroke-width: 0.5;"/><!--MD5=[d7a7f2e1c01fc8a7f9a6b31abc7df07e]
link routes/users to authenticate--><path d="M559.787,98.052 C547.395,107.869 529.846,121.771 516.616,132.2526 " fill="none" id="routes/users-&gt;authenticate" style="stroke: #000000; stroke-width: 0.5;"/><polygon fill="#000000" points="512.659,135.3873,522.1971,132.9328,516.5778,132.282,517.2286,126.6627,512.659,135.3873" style="stroke: #000000; stroke-width: 0.5;"/><!--MD5=[cfdd1e474c1dc0c5b30d0964856123c9]
link routes/users to _customTypes--><path d="M589.368,98.344 C599.112,106.716 612.195,117.956 623.332,127.524 " fill="none" id="routes/users-&gt;_customTypes" style="stroke: #000000; stroke-width: 0.5;"/><polygon fill="#000000" points="627.337,130.9655,623.1179,122.0661,623.5448,127.7068,617.904,128.1337,627.337,130.9655" style="stroke: #000000; stroke-width: 0.5;"/><!--MD5=[b4de694d57f136ecc4984252bf916297]
link routes/users to models/users--><path d="M573.357,98.604 C571.051,114.443 566.193,142.3032 558,165 C554.49,174.7223 549.305,184.9711 544.651,193.321 " fill="none" id="routes/users-&gt;models/users" style="stroke: #000000; stroke-width: 0.5;"/><polygon fill="#000000" points="542.135,197.749,550.0597,191.901,544.6056,193.402,543.1045,187.948,542.135,197.749" style="stroke: #000000; stroke-width: 0.5;"/><!--MD5=[1a766b2c181ef81faa2fe012331f35c4]
link <b>server</b> to app--><path d="M503.246,23.5 C506.437,23.5 509.627,23.5 512.818,23.5 " fill="none" id="&lt;b&gt;server&lt;/b&gt;-&gt;app" style="stroke: #000000; stroke-width: 1.0;"/><polygon fill="#000000" points="517.832,23.5,508.832,19.5,512.832,23.5,508.832,27.5,517.832,23.5" style="stroke: #000000; stroke-width: 1.0;"/><!--MD5=[b5c98b812da9a52bc7fc4d6c14d50210]
link services/dishes to _models_dishes--><path d="M67,162.7598 C67,170.5593 67,180.4937 67,189.3176 " fill="none" id="services/dishes-&gt;_models_dishes" style="stroke: #000000; stroke-width: 0.5;"/><polygon fill="#000000" points="67,194.6393,71,185.6393,67,189.6393,63,185.6393,67,194.6393" style="stroke: #000000; stroke-width: 0.5;"/><!--MD5=[09a18870dc7ab73bac48f7db15822336]
link services/leaders to _models_leaders--><path d="M206,163.0688 C206,170.8797 206,180.7594 206,189.517 " fill="none" id="services/leaders-&gt;_models_leaders" style="stroke: #000000; stroke-width: 0.5;"/><polygon fill="#000000" points="206,194.7963,210,185.7963,206,189.7963,202,185.7963,206,194.7963" style="stroke: #000000; stroke-width: 0.5;"/><!--MD5=[9c751ce931fb82625344c5948b4ec2f9]
link services/promotions to _models_promotions--><path d="M357,165.2898 C357,172.6358 357,181.4165 357,189.3096 " fill="none" id="services/promotions-&gt;_models_promotions" style="stroke: #000000; stroke-width: 0.5;"/><polygon fill="#000000" points="357,194.6038,361,185.6038,357,189.6038,353,185.6038,357,194.6038" style="stroke: #000000; stroke-width: 0.5;"/><script type="text/plantuml"><![CDATA[MD5=[329152ee73d84608641bdc663bf2c0d1]
@startuml

scale max 1920 width
top to bottom direction

skinparam nodesep 15
skinparam ranksep 30
skinparam monochrome true
skinparam shadowing false
skinparam defaultFontName Tahoma
skinparam defaultFontSize 12
skinparam roundCorner 6
skinparam dpi 150
skinparam arrowColor black
skinparam arrowThickness 0.5
skinparam packageTitleAlignment left

skinparam usecase {
  borderThickness 0.5
}

skinparam rectangle {
  borderThickness 0.5
}

skinparam component {
  borderThickness 1
}


(app)
(authenticate)
(config)
rectangle "customTypes" as _customTypes
(models)
rectangle "models/dishes" as _models_dishes
rectangle "models/leaders" as _models_leaders
rectangle "models/promotions" as _models_promotions
(models/users)
(routes)
(routes/dishes)
(routes/leaders)
(routes/promotions)
(routes/users)
(<b>server</b>)
(services/dishes)
(services/leaders)
(services/promotions)
(<b>services/users</b>)


(app) --> (authenticate)
(app) --> _customTypes
(app) --> (models)
(app) --> (routes)
(app) --> (routes/dishes)
(app) --> (routes/leaders)
(app) --> (routes/promotions)
(app) --> (routes/users)
(authenticate) --> (config)
(authenticate) --> (models/users)
(models) --> (config)
(routes/dishes) --> (authenticate)
(routes/dishes) --> (services/dishes)
(routes/leaders) --> (authenticate)
(routes/leaders) --> (services/leaders)
(routes/promotions) --> (authenticate)
(routes/promotions) --> (services/promotions)
(routes/users) --> (authenticate)
(routes/users) --> _customTypes
(routes/users) --> (models/users)
(<b>server</b>) -[thickness=1]> (app)
(services/dishes) --> _models_dishes
(services/leaders) --> _models_leaders
(services/promotions) --> _models_promotions

@enduml


' View and edit on https://arkit.pro
]]></script></g></svg>