<?xml version="1.0" encoding="UTF-8" standalone="no"?><svg xmlns="http://www.w3.org/2000/svg" xmlns:xlink="http://www.w3.org/1999/xlink" contentScriptType="application/ecmascript" contentStyleType="text/css" height="245px" preserveAspectRatio="none" style="width:994px;height:245px;" version="1.1" viewBox="0 0 994 245" width="994px" zoomAndPan="magnify"><defs/><g><ellipse cx="315.8492" cy="26.242" fill="#F8F8F8" rx="17.8492" ry="13.242" style="stroke: #383838; stroke-width: 0.5;"/><text fill="#000000" font-family="Tahoma, sans-serif" font-size="12" lengthAdjust="spacingAndGlyphs" textLength="21" x="305.3492" y="29.9842">app</text><ellipse cx="227.2046" cy="153.242" fill="#F8F8F8" rx="53.2046" ry="13.242" style="stroke: #383838; stroke-width: 0.5;"/><text fill="#000000" font-family="Tahoma, sans-serif" font-size="12" lengthAdjust="spacingAndGlyphs" textLength="71" x="191.7046" y="156.9842">authenticate</text><ellipse cx="319.9558" cy="217.242" fill="#F8F8F8" rx="28.4558" ry="13.242" style="stroke: #383838; stroke-width: 0.5;"/><text fill="#000000" font-family="Tahoma, sans-serif" font-size="12" lengthAdjust="spacingAndGlyphs" textLength="36" x="301.9558" y="220.9842">config</text><ellipse cx="761.9695" cy="25.7939" fill="#F8F8F8" rx="76.9695" ry="17.7939" style="stroke: #383838; stroke-width: 0.5;"/><text fill="#000000" font-family="Tahoma, sans-serif" font-size="12" font-weight="bold" lengthAdjust="spacingAndGlyphs" textLength="129" x="697.4695" y="29.5361">error_with_status.d</text><ellipse cx="328.9056" cy="153.242" fill="#F8F8F8" rx="33.4056" ry="13.242" style="stroke: #383838; stroke-width: 0.5;"/><text fill="#000000" font-family="Tahoma, sans-serif" font-size="12" lengthAdjust="spacingAndGlyphs" textLength="43" x="307.4056" y="156.9842">models</text><!--MD5=[76c35b706b08589f08ee354173f387d2]
entity _models_dishes--><rect fill="#F8F8F8" height="34.4844" rx="3" ry="3" style="stroke: #000000; stroke-width: 0.5;" width="106" x="14" y="200"/><text fill="#000000" font-family="Tahoma, sans-serif" font-size="12" lengthAdjust="spacingAndGlyphs" textLength="86" x="24" y="222.0059">models/dishes</text><!--MD5=[76781664a946daf55f266a3659ab841e]
entity _models_leaders--><rect fill="#F8F8F8" height="34.4844" rx="3" ry="3" style="stroke: #000000; stroke-width: 0.5;" width="110" x="385" y="200"/><text fill="#000000" font-family="Tahoma, sans-serif" font-size="12" lengthAdjust="spacingAndGlyphs" textLength="90" x="395" y="222.0059">models/leaders</text><!--MD5=[918216c45071de63b7814f6489b3c003]
entity _models_promotions--><rect fill="#F8F8F8" height="34.4844" rx="3" ry="3" style="stroke: #000000; stroke-width: 0.5;" width="135" x="523.5" y="200"/><text fill="#000000" font-family="Tahoma, sans-serif" font-size="12" lengthAdjust="spacingAndGlyphs" textLength="115" x="533.5" y="222.0059">models/promotions</text><ellipse cx="209.9558" cy="216.7912" fill="#F8F8F8" rx="56.9558" ry="13.7912" style="stroke: #383838; stroke-width: 0.5;"/><text fill="#000000" font-family="Tahoma, sans-serif" font-size="12" lengthAdjust="spacingAndGlyphs" textLength="80" x="169.9558" y="220.5334">models/users</text><ellipse cx="918.8309" cy="25.7662" fill="#F8F8F8" rx="64.3309" ry="15.2662" style="stroke: #383838; stroke-width: 0.5;"/><text fill="#000000" font-family="Tahoma, sans-serif" font-size="12" font-weight="bold" lengthAdjust="spacingAndGlyphs" textLength="99" x="869.3309" y="29.5084">request_user.d</text><ellipse cx="653.163" cy="90.242" fill="#F8F8F8" rx="29.163" ry="13.242" style="stroke: #383838; stroke-width: 0.5;"/><text fill="#000000" font-family="Tahoma, sans-serif" font-size="12" lengthAdjust="spacingAndGlyphs" textLength="37" x="634.663" y="93.9842">routes</text><ellipse cx="79.9558" cy="89.7912" fill="#F8F8F8" rx="56.9558" ry="13.7912" style="stroke: #383838; stroke-width: 0.5;"/><text fill="#000000" font-family="Tahoma, sans-serif" font-size="12" lengthAdjust="spacingAndGlyphs" textLength="80" x="39.9558" y="93.5334">routes/dishes</text><ellipse cx="397.9548" cy="90.091" fill="#F8F8F8" rx="58.4548" ry="14.091" style="stroke: #383838; stroke-width: 0.5;"/><text fill="#000000" font-family="Tahoma, sans-serif" font-size="12" lengthAdjust="spacingAndGlyphs" textLength="84" x="355.9548" y="93.8331">routes/leaders</text><ellipse cx="539.933" cy="90.0866" fill="#F8F8F8" rx="68.433" ry="16.0866" style="stroke: #383838; stroke-width: 0.5;"/><text fill="#000000" font-family="Tahoma, sans-serif" font-size="12" lengthAdjust="spacingAndGlyphs" textLength="109" x="485.433" y="93.8288">routes/promotions</text><ellipse cx="206.771" cy="89.8542" fill="#F8F8F8" rx="54.771" ry="13.3542" style="stroke: #383838; stroke-width: 0.5;"/><text fill="#000000" font-family="Tahoma, sans-serif" font-size="12" lengthAdjust="spacingAndGlyphs" textLength="74" x="169.771" y="93.5964">routes/users</text><ellipse cx="250.9914" cy="26.242" fill="#F8F8F8" rx="31.9914" ry="13.242" style="stroke: #383838; stroke-width: 0.5;"/><text fill="#000000" font-family="Tahoma, sans-serif" font-size="12" font-weight="bold" lengthAdjust="spacingAndGlyphs" textLength="41" x="230.4914" y="29.9842">server</text><ellipse cx="67.1505" cy="153.1301" fill="#F8F8F8" rx="61.1505" ry="14.6301" style="stroke: #383838; stroke-width: 0.5;"/><text fill="#000000" font-family="Tahoma, sans-serif" font-size="12" lengthAdjust="spacingAndGlyphs" textLength="91" x="21.6505" y="156.8723">services/dishes</text><ellipse cx="440.2284" cy="152.9457" fill="#F8F8F8" rx="62.7284" ry="14.9457" style="stroke: #383838; stroke-width: 0.5;"/><text fill="#000000" font-family="Tahoma, sans-serif" font-size="12" lengthAdjust="spacingAndGlyphs" textLength="95" x="392.7284" y="156.6879">services/leaders</text><ellipse cx="591.0802" cy="153.016" fill="#F8F8F8" rx="73.0802" ry="17.016" style="stroke: #383838; stroke-width: 0.5;"/><text fill="#000000" font-family="Tahoma, sans-serif" font-size="12" lengthAdjust="spacingAndGlyphs" textLength="120" x="531.0802" y="156.7582">services/promotions</text><ellipse cx="761.8309" cy="89.7662" fill="#F8F8F8" rx="64.3309" ry="15.2662" style="stroke: #383838; stroke-width: 0.5;"/><text fill="#000000" font-family="Tahoma, sans-serif" font-size="12" font-weight="bold" lengthAdjust="spacingAndGlyphs" textLength="99" x="712.3309" y="93.5084">services/users</text><!--MD5=[99ee2a9cf1c9ecddc179acce6c8b3601]
link app to authenticate--><path d="M310.144,38.445 C301.856,54.234 285.831,83.315 269,106 C261.137,116.598 251.226,127.545 243.007,136.0996 " fill="none" id="app-&gt;authenticate" style="stroke: #000000; stroke-width: 0.5;"/><polygon fill="#000000" points="239.125,140.095,248.2651,136.4263,242.6088,136.5085,242.5267,130.8522,239.125,140.095" style="stroke: #000000; stroke-width: 0.5;"/><!--MD5=[47da4e6cd757ecd79364a03fbe1974e3]
link app to models--><path d="M317.246,38.986 C319.56,61.234 324.527,108.992 327.204,134.727 " fill="none" id="app-&gt;models" style="stroke: #000000; stroke-width: 0.5;"/><polygon fill="#000000" points="327.738,139.8671,330.7854,130.5015,327.2207,134.8939,322.8283,131.3293,327.738,139.8671" style="stroke: #000000; stroke-width: 0.5;"/><!--MD5=[4310d82b442df7db071be166cafab6a0]
link app to routes--><path d="M333.885,28.36 C380.861,32.24 511.342,45.004 616,74 C620.225,75.171 624.621,76.678 628.845,78.285 " fill="none" id="app-&gt;routes" style="stroke: #000000; stroke-width: 0.5;"/><polygon fill="#000000" points="633.705,80.203,626.8006,73.1795,629.0538,78.3682,623.865,80.6214,633.705,80.203" style="stroke: #000000; stroke-width: 0.5;"/><!--MD5=[582a5cc163f243f8042d7901f6569d6e]
link app to routes/dishes--><path d="M304.357,35.956 C300.044,38.902 294.986,41.945 290,44 C228.752,69.239 208.699,59.774 144,74 C137.516,75.426 130.674,76.978 123.972,78.526 " fill="none" id="app-&gt;routes/dishes" style="stroke: #000000; stroke-width: 0.5;"/><polygon fill="#000000" points="118.882,79.706,128.5527,81.5709,123.7529,78.5772,126.7466,73.7775,118.882,79.706" style="stroke: #000000; stroke-width: 0.5;"/><!--MD5=[9cfc84d14164d1ad6c3c5a353bc61cad]
link app to routes/leaders--><path d="M327.749,35.883 C340.621,45.616 361.52,61.417 377.183,73.26 " fill="none" id="app-&gt;routes/leaders" style="stroke: #000000; stroke-width: 0.5;"/><polygon fill="#000000" points="381.451,76.487,376.6845,67.8684,377.4627,73.4715,371.8596,74.2497,381.451,76.487" style="stroke: #000000; stroke-width: 0.5;"/><!--MD5=[77185ed9e59f4707c8c25eb42c492842]
link app to routes/promotions--><path d="M332.471,31.559 C365.78,40.778 442.237,61.941 492.466,75.843 " fill="none" id="app-&gt;routes/promotions" style="stroke: #000000; stroke-width: 0.5;"/><polygon fill="#000000" points="497.545,77.249,489.9371,70.9944,492.726,75.916,487.8043,78.7049,497.545,77.249" style="stroke: #000000; stroke-width: 0.5;"/><!--MD5=[bba0a23cbfaa5ea14b8aadba7d643a81]
link app to routes/users--><path d="M303.437,35.512 C299.214,38.293 294.446,41.347 290,44 C271.601,54.978 250.352,66.477 233.961,75.103 " fill="none" id="app-&gt;routes/users" style="stroke: #000000; stroke-width: 0.5;"/><polygon fill="#000000" points="229.473,77.457,239.3012,76.82,233.9012,75.135,235.5861,69.735,229.473,77.457" style="stroke: #000000; stroke-width: 0.5;"/><!--MD5=[80ebf3e134a14a9c8fcaf4e578ab1033]
link authenticate to config--><path d="M244.058,165.3718 C259.971,175.9806 283.699,191.7996 300.388,202.9255 " fill="none" id="authenticate-&gt;config" style="stroke: #000000; stroke-width: 0.5;"/><polygon fill="#000000" points="304.896,205.9309,299.6274,197.6097,300.7361,203.1569,295.189,204.2656,304.896,205.9309" style="stroke: #000000; stroke-width: 0.5;"/><!--MD5=[69e7c3e6d0ac319dd2a1181fe877e6d1]
link authenticate to models/users--><path d="M223.641,166.2492 C221.169,175.2648 217.768,187.6696 214.98,197.837 " fill="none" id="authenticate-&gt;models/users" style="stroke: #000000; stroke-width: 0.5;"/><polygon fill="#000000" points="213.586,202.9201,219.8237,195.2984,214.9083,198.0981,212.1085,193.1827,213.586,202.9201" style="stroke: #000000; stroke-width: 0.5;"/><!--MD5=[93f45a746529616a154f2fddba54c440]
link models to config--><path d="M327.222,166.2492 C325.878,175.5052 324.016,188.3336 322.519,198.6455 " fill="none" id="models-&gt;config" style="stroke: #000000; stroke-width: 0.5;"/><polygon fill="#000000" points="321.774,203.7762,327.0253,195.4441,322.4922,198.8281,319.1083,194.295,321.774,203.7762" style="stroke: #000000; stroke-width: 0.5;"/><!--MD5=[0190ce34ac695c236d5e93b8fa4aae9e]
link routes/dishes to authenticate--><path d="M107.305,102.331 C132.787,112.905 170.726,128.648 197.033,139.5648 " fill="none" id="routes/dishes-&gt;authenticate" style="stroke: #000000; stroke-width: 0.5;"/><polygon fill="#000000" points="201.804,141.5446,195.0254,134.3996,197.1861,139.6276,191.9582,141.7882,201.804,141.5446" style="stroke: #000000; stroke-width: 0.5;"/><!--MD5=[9519543a544ae612625ea520920119d3]
link routes/dishes to services/dishes--><path d="M77.1792,104.236 C75.3646,112.751 72.9795,123.942 70.9742,133.352 " fill="none" id="routes/dishes-&gt;services/dishes" style="stroke: #000000; stroke-width: 0.5;"/><polygon fill="#000000" points="69.9053,138.3674,75.6944,130.3996,70.9481,133.4774,67.8704,128.7311,69.9053,138.3674" style="stroke: #000000; stroke-width: 0.5;"/><!--MD5=[e9129cb5e9ea2111512af41144a18cb2]
link routes/leaders to authenticate--><path d="M367.033,102.047 C336.794,112.834 290.935,129.193 260.014,140.2232 " fill="none" id="routes/leaders-&gt;authenticate" style="stroke: #000000; stroke-width: 0.5;"/><polygon fill="#000000" points="255.184,141.9461,265.0048,142.6895,259.8933,140.2661,262.3167,135.1546,255.184,141.9461" style="stroke: #000000; stroke-width: 0.5;"/><!--MD5=[1011375e12295e0e7139a9c2732b2c2e]
link routes/leaders to services/leaders--><path d="M406.907,103.937 C412.837,112.55 420.72,123.997 427.304,133.56 " fill="none" id="routes/leaders-&gt;services/leaders" style="stroke: #000000; stroke-width: 0.5;"/><polygon fill="#000000" points="430.226,137.804,428.4163,128.1228,427.3903,133.6859,421.8273,132.6599,430.226,137.804" style="stroke: #000000; stroke-width: 0.5;"/><!--MD5=[1ce9b89f32730b39dbc372aab9ecbd10]
link routes/promotions to authenticate--><path d="M490.16,101.029 C481.448,102.728 472.465,104.443 464,106 C385.958,120.35 365.563,119.251 288,136 C280.609,137.596 272.766,139.4953 265.254,141.4182 " fill="none" id="routes/promotions-&gt;authenticate" style="stroke: #000000; stroke-width: 0.5;"/><polygon fill="#000000" points="260.115,142.7497,269.8306,144.3641,264.9551,141.4954,267.8238,136.6199,260.115,142.7497" style="stroke: #000000; stroke-width: 0.5;"/><!--MD5=[baee16691d5567c53a0507fc3c4ab706]
link routes/promotions to services/promotions--><path d="M552.346,105.766 C558.933,113.645 567.132,123.452 574.282,132.004 " fill="none" id="routes/promotions-&gt;services/promotions" style="stroke: #000000; stroke-width: 0.5;"/><polygon fill="#000000" points="577.696,136.0875,574.9934,126.6167,574.4895,132.2511,568.8551,131.7472,577.696,136.0875" style="stroke: #000000; stroke-width: 0.5;"/><!--MD5=[d7a7f2e1c01fc8a7f9a6b31abc7df07e]
link routes/users to authenticate--><path d="M211.144,103.639 C214.106,112.673 218.126,124.935 221.377,134.8511 " fill="none" id="routes/users-&gt;authenticate" style="stroke: #000000; stroke-width: 0.5;"/><polygon fill="#000000" points="222.998,139.7932,223.9949,129.9949,221.4402,135.0421,216.3931,132.4874,222.998,139.7932" style="stroke: #000000; stroke-width: 0.5;"/><!--MD5=[b4de694d57f136ecc4984252bf916297]
link routes/users to models/users--><path d="M191.007,103.289 C181.781,111.433 171.038,122.99 166,136 C160.543,150.0915 160.373,155.9758 166,170 C170.668,181.6346 179.839,191.9904 188.605,199.9163 " fill="none" id="routes/users-&gt;models/users" style="stroke: #000000; stroke-width: 0.5;"/><polygon fill="#000000" points="192.855,203.6069,188.6828,194.6854,189.08,200.3283,183.4371,200.7255,192.855,203.6069" style="stroke: #000000; stroke-width: 0.5;"/><!--MD5=[1a766b2c181ef81faa2fe012331f35c4]
link <b>server</b> to app--><path d="M283.246,26 C286.437,26 289.627,26 292.818,26 " fill="none" id="&lt;b&gt;server&lt;/b&gt;-&gt;app" style="stroke: #000000; stroke-width: 1.0;"/><polygon fill="#000000" points="297.832,26,288.832,22,292.832,26,288.832,30,297.832,26" style="stroke: #000000; stroke-width: 1.0;"/><!--MD5=[b5c98b812da9a52bc7fc4d6c14d50210]
link services/dishes to _models_dishes--><path d="M67,167.7598 C67,175.5593 67,185.4937 67,194.3176 " fill="none" id="services/dishes-&gt;_models_dishes" style="stroke: #000000; stroke-width: 0.5;"/><polygon fill="#000000" points="67,199.6393,71,190.6393,67,194.6393,63,190.6393,67,199.6393" style="stroke: #000000; stroke-width: 0.5;"/><!--MD5=[09a18870dc7ab73bac48f7db15822336]
link services/leaders to _models_leaders--><path d="M440,168.0688 C440,175.8797 440,185.7594 440,194.517 " fill="none" id="services/leaders-&gt;_models_leaders" style="stroke: #000000; stroke-width: 0.5;"/><polygon fill="#000000" points="440,199.7963,444,190.7963,440,194.7963,436,190.7963,440,199.7963" style="stroke: #000000; stroke-width: 0.5;"/><!--MD5=[9c751ce931fb82625344c5948b4ec2f9]
link services/promotions to _models_promotions--><path d="M591,170.2898 C591,177.6358 591,186.4165 591,194.3096 " fill="none" id="services/promotions-&gt;_models_promotions" style="stroke: #000000; stroke-width: 0.5;"/><polygon fill="#000000" points="591,199.6038,595,190.6038,591,194.6038,587,190.6038,591,199.6038" style="stroke: #000000; stroke-width: 0.5;"/><!--MD5=[b8a7fba48d8cdbcefe329ae85c82e298]
link <b>error_with_status.d</b> to <b>request_user.d</b>--><!--MD5=[fa27c7c0d28091972ed63f4fba129440]
link <b>error_with_status.d</b> to <b>services/users</b>--><script type="text/plantuml"><![CDATA[MD5=[7e199d5e68b18caf27442da37ec23ca0]
@startuml

scale max 1920 width
top to bottom direction

skinparam nodesep 15
skinparam ranksep 30
skinparam monochrome true
skinparam shadowing false
skinparam defaultFontName Tahoma
skinparam defaultFontSize 12
skinparam roundCorner 6
skinparam dpi 150
skinparam arrowColor black
skinparam arrowThickness 0.5
skinparam packageTitleAlignment left

skinparam usecase {
  borderThickness 0.5
}

skinparam rectangle {
  borderThickness 0.5
}

skinparam component {
  borderThickness 1
}


(app)
(authenticate)
(config)
(<b>error_with_status.d</b>)
(models)
rectangle "models/dishes" as _models_dishes
rectangle "models/leaders" as _models_leaders
rectangle "models/promotions" as _models_promotions
(models/users)
(<b>request_user.d</b>)
(routes)
(routes/dishes)
(routes/leaders)
(routes/promotions)
(routes/users)
(<b>server</b>)
(services/dishes)
(services/leaders)
(services/promotions)
(<b>services/users</b>)


(app) --> (authenticate)
(app) --> (models)
(app) --> (routes)
(app) --> (routes/dishes)
(app) --> (routes/leaders)
(app) --> (routes/promotions)
(app) --> (routes/users)
(authenticate) --> (config)
(authenticate) --> (models/users)
(models) --> (config)
(routes/dishes) --> (authenticate)
(routes/dishes) --> (services/dishes)
(routes/leaders) --> (authenticate)
(routes/leaders) --> (services/leaders)
(routes/promotions) --> (authenticate)
(routes/promotions) --> (services/promotions)
(routes/users) --> (authenticate)
(routes/users) --> (models/users)
(<b>server</b>) -[thickness=1]> (app)
(services/dishes) --> _models_dishes
(services/leaders) --> _models_leaders
(services/promotions) --> _models_promotions

@enduml


' View and edit on https://arkit.pro
]]></script></g></svg>