<?xml version="1.0" encoding="UTF-8" standalone="no"?><svg xmlns="http://www.w3.org/2000/svg" xmlns:xlink="http://www.w3.org/1999/xlink" contentScriptType="application/ecmascript" contentStyleType="text/css" height="389px" preserveAspectRatio="none" style="width:682px;height:389px;" version="1.1" viewBox="0 0 682 389" width="682px" zoomAndPan="magnify"><defs/><g><ellipse cx="82.8492" cy="206.242" fill="#F8F8F8" rx="17.8492" ry="13.242" style="stroke: #383838; stroke-width: 0.5;"/><text fill="#000000" font-family="Tahoma, sans-serif" font-size="12" lengthAdjust="spacingAndGlyphs" textLength="21" x="72.3492" y="209.9842">app</text><ellipse cx="432.2046" cy="137.242" fill="#F8F8F8" rx="53.2046" ry="13.242" style="stroke: #383838; stroke-width: 0.5;"/><text fill="#000000" font-family="Tahoma, sans-serif" font-size="12" lengthAdjust="spacingAndGlyphs" textLength="71" x="396.7046" y="140.9842">authenticate</text><ellipse cx="603.4558" cy="156.242" fill="#F8F8F8" rx="28.4558" ry="13.242" style="stroke: #383838; stroke-width: 0.5;"/><text fill="#000000" font-family="Tahoma, sans-serif" font-size="12" lengthAdjust="spacingAndGlyphs" textLength="36" x="585.4558" y="159.9842">config</text><ellipse cx="431.8848" cy="317.242" fill="#F8F8F8" rx="21.3848" ry="13.242" style="stroke: #383838; stroke-width: 0.5;"/><text fill="#000000" font-family="Tahoma, sans-serif" font-size="12" lengthAdjust="spacingAndGlyphs" textLength="26" x="418.8848" y="320.9842">cors</text><ellipse cx="82.9695" cy="25.7939" fill="#F8F8F8" rx="76.9695" ry="17.7939" style="stroke: #383838; stroke-width: 0.5;"/><text fill="#000000" font-family="Tahoma, sans-serif" font-size="12" font-weight="bold" lengthAdjust="spacingAndGlyphs" textLength="129" x="18.4695" y="29.5361">error_with_status.d</text><ellipse cx="431.9056" cy="179.242" fill="#F8F8F8" rx="33.4056" ry="13.242" style="stroke: #383838; stroke-width: 0.5;"/><text fill="#000000" font-family="Tahoma, sans-serif" font-size="12" lengthAdjust="spacingAndGlyphs" textLength="43" x="410.4056" y="182.9842">models</text><!--MD5=[76c35b706b08589f08ee354173f387d2]
entity _models_dishes--><rect fill="#F8F8F8" height="34.4844" rx="3" ry="3" style="stroke: #000000; stroke-width: 0.5;" width="106" x="550.5" y="344"/><text fill="#000000" font-family="Tahoma, sans-serif" font-size="12" lengthAdjust="spacingAndGlyphs" textLength="86" x="560.5" y="366.0059">models/dishes</text><!--MD5=[76781664a946daf55f266a3659ab841e]
entity _models_leaders--><rect fill="#F8F8F8" height="34.4844" rx="3" ry="3" style="stroke: #000000; stroke-width: 0.5;" width="110" x="548.5" y="205"/><text fill="#000000" font-family="Tahoma, sans-serif" font-size="12" lengthAdjust="spacingAndGlyphs" textLength="90" x="558.5" y="227.0059">models/leaders</text><!--MD5=[918216c45071de63b7814f6489b3c003]
entity _models_promotions--><rect fill="#F8F8F8" height="34.4844" rx="3" ry="3" style="stroke: #000000; stroke-width: 0.5;" width="135" x="536" y="255"/><text fill="#000000" font-family="Tahoma, sans-serif" font-size="12" lengthAdjust="spacingAndGlyphs" textLength="115" x="546" y="277.0059">models/promotions</text><ellipse cx="603.4558" cy="98.7912" fill="#F8F8F8" rx="56.9558" ry="13.7912" style="stroke: #383838; stroke-width: 0.5;"/><text fill="#000000" font-family="Tahoma, sans-serif" font-size="12" lengthAdjust="spacingAndGlyphs" textLength="80" x="563.4558" y="102.5334">models/users</text><ellipse cx="82.8309" cy="75.7662" fill="#F8F8F8" rx="64.3309" ry="15.2662" style="stroke: #383838; stroke-width: 0.5;"/><text fill="#000000" font-family="Tahoma, sans-serif" font-size="12" font-weight="bold" lengthAdjust="spacingAndGlyphs" textLength="99" x="33.3309" y="79.5084">request_user.d</text><ellipse cx="259.663" cy="360.242" fill="#F8F8F8" rx="29.163" ry="13.242" style="stroke: #383838; stroke-width: 0.5;"/><text fill="#000000" font-family="Tahoma, sans-serif" font-size="12" lengthAdjust="spacingAndGlyphs" textLength="37" x="241.163" y="363.9842">routes</text><ellipse cx="259.4558" cy="316.7912" fill="#F8F8F8" rx="56.9558" ry="13.7912" style="stroke: #383838; stroke-width: 0.5;"/><text fill="#000000" font-family="Tahoma, sans-serif" font-size="12" lengthAdjust="spacingAndGlyphs" textLength="80" x="219.4558" y="320.5334">routes/dishes</text><ellipse cx="259.4548" cy="225.091" fill="#F8F8F8" rx="58.4548" ry="14.091" style="stroke: #383838; stroke-width: 0.5;"/><text fill="#000000" font-family="Tahoma, sans-serif" font-size="12" lengthAdjust="spacingAndGlyphs" textLength="84" x="217.4548" y="228.8331">routes/leaders</text><ellipse cx="259.433" cy="271.0866" fill="#F8F8F8" rx="68.433" ry="16.0866" style="stroke: #383838; stroke-width: 0.5;"/><text fill="#000000" font-family="Tahoma, sans-serif" font-size="12" lengthAdjust="spacingAndGlyphs" textLength="109" x="204.933" y="274.8288">routes/promotions</text><ellipse cx="259.271" cy="70.8542" fill="#F8F8F8" rx="54.771" ry="13.3542" style="stroke: #383838; stroke-width: 0.5;"/><text fill="#000000" font-family="Tahoma, sans-serif" font-size="12" lengthAdjust="spacingAndGlyphs" textLength="74" x="222.271" y="74.5964">routes/users</text><ellipse cx="82.9914" cy="164.242" fill="#F8F8F8" rx="31.9914" ry="13.242" style="stroke: #383838; stroke-width: 0.5;"/><text fill="#000000" font-family="Tahoma, sans-serif" font-size="12" font-weight="bold" lengthAdjust="spacingAndGlyphs" textLength="41" x="62.4914" y="167.9842">server</text><ellipse cx="432.1505" cy="361.1301" fill="#F8F8F8" rx="61.1505" ry="14.6301" style="stroke: #383838; stroke-width: 0.5;"/><text fill="#000000" font-family="Tahoma, sans-serif" font-size="12" lengthAdjust="spacingAndGlyphs" textLength="91" x="386.6505" y="364.8723">services/dishes</text><ellipse cx="432.2284" cy="222.9457" fill="#F8F8F8" rx="62.7284" ry="14.9457" style="stroke: #383838; stroke-width: 0.5;"/><text fill="#000000" font-family="Tahoma, sans-serif" font-size="12" lengthAdjust="spacingAndGlyphs" textLength="95" x="384.7284" y="226.6879">services/leaders</text><ellipse cx="432.0802" cy="271.016" fill="#F8F8F8" rx="73.0802" ry="17.016" style="stroke: #383838; stroke-width: 0.5;"/><text fill="#000000" font-family="Tahoma, sans-serif" font-size="12" lengthAdjust="spacingAndGlyphs" textLength="120" x="372.0802" y="274.7582">services/promotions</text><ellipse cx="259.3309" cy="25.7662" fill="#F8F8F8" rx="64.3309" ry="15.2662" style="stroke: #383838; stroke-width: 0.5;"/><text fill="#000000" font-family="Tahoma, sans-serif" font-size="12" font-weight="bold" lengthAdjust="spacingAndGlyphs" textLength="99" x="209.8309" y="29.5084">services/users</text><ellipse cx="259.5772" cy="114.242" fill="#F8F8F8" rx="30.5772" ry="13.242" style="stroke: #383838; stroke-width: 0.5;"/><text fill="#000000" font-family="Tahoma, sans-serif" font-size="12" lengthAdjust="spacingAndGlyphs" textLength="39" x="240.0772" y="117.9842">upload</text><!--MD5=[99ee2a9cf1c9ecddc179acce6c8b3601]
link app to authenticate--><path d="M100.2273,201.507 C121.116,195.815 158.585,185.916 191,179 C256.46,165.033 332.69,152.286 381.367,144.587 " fill="none" id="app-&gt;authenticate" style="stroke: #000000; stroke-width: 0.5;"/><polygon fill="#000000" points="386.577,143.766,377.0639,141.2164,381.638,144.5446,378.3097,149.1188,386.577,143.766" style="stroke: #000000; stroke-width: 0.5;"/><!--MD5=[47da4e6cd757ecd79364a03fbe1974e3]
link app to models--><path d="M101.2078,204.661 C154.76,200.494 319.319,187.69 393.751,181.898 " fill="none" id="app-&gt;models" style="stroke: #000000; stroke-width: 0.5;"/><polygon fill="#000000" points="398.952,181.494,389.6693,178.203,393.967,181.8812,390.2888,186.1789,398.952,181.494" style="stroke: #000000; stroke-width: 0.5;"/><!--MD5=[4310d82b442df7db071be166cafab6a0]
link app to routes--><path d="M90.3,217.91 C104.6315,243.859 142.242,305.8243 191,339 C201.654,346.2492 214.924,351.0846 226.871,354.2667 " fill="none" id="app-&gt;routes" style="stroke: #000000; stroke-width: 0.5;"/><polygon fill="#000000" points="231.899,355.5315,224.147,349.4564,227.0501,354.3115,222.195,357.2146,231.899,355.5315" style="stroke: #000000; stroke-width: 0.5;"/><!--MD5=[582a5cc163f243f8042d7901f6569d6e]
link app to routes/dishes--><path d="M93.9358,216.562 C111.752,234.936 151.021,272.928 191,295 C198.238,298.9959 206.317,302.4083 214.3,305.2685 " fill="none" id="app-&gt;routes/dishes" style="stroke: #000000; stroke-width: 0.5;"/><polygon fill="#000000" points="219.249,306.9783,212.0487,300.2585,214.5231,305.3455,209.4362,307.8199,219.249,306.9783" style="stroke: #000000; stroke-width: 0.5;"/><!--MD5=[9cfc84d14164d1ad6c3c5a353bc61cad]
link app to routes/leaders--><path d="M101.0495,207.856 C124.018,210.357 166.041,214.933 200.898,218.728 " fill="none" id="app-&gt;routes/leaders" style="stroke: #000000; stroke-width: 0.5;"/><polygon fill="#000000" points="205.986,219.282,197.472,214.3311,201.0154,218.7407,196.6058,222.2841,205.986,219.282" style="stroke: #000000; stroke-width: 0.5;"/><!--MD5=[77185ed9e59f4707c8c25eb42c492842]
link app to routes/promotions--><path d="M99.1945,211.956 C119.898,220.04 158.156,234.87 191,247 C198.923,249.926 207.392,252.988 215.56,255.909 " fill="none" id="app-&gt;routes/promotions" style="stroke: #000000; stroke-width: 0.5;"/><polygon fill="#000000" points="220.599,257.706,213.4659,250.9149,215.8896,256.0262,210.7783,258.4499,220.599,257.706" style="stroke: #000000; stroke-width: 0.5;"/><!--MD5=[bba0a23cbfaa5ea14b8aadba7d643a81]
link app to routes/users--><path d="M101.0161,205.728 C118.058,204.547 143.99,200.146 160,185 C191.344,155.347 160.339,123.358 191,93 C196.266,87.786 202.782,83.808 209.67,80.772 " fill="none" id="app-&gt;routes/users" style="stroke: #000000; stroke-width: 0.5;"/><polygon fill="#000000" points="214.487,78.817,204.6434,78.4947,209.8539,80.6971,207.6516,85.9076,214.487,78.817" style="stroke: #000000; stroke-width: 0.5;"/><!--MD5=[d2511197c9fa3b005378264eca2bcd98]
link app to upload--><path d="M101.1668,204.677 C117.608,202.671 142.444,197.632 160,185 C180.012,170.601 171.619,154.237 191,139 C201.401,130.823 214.745,125.133 226.817,121.272 " fill="none" id="app-&gt;upload" style="stroke: #000000; stroke-width: 0.5;"/><polygon fill="#000000" points="231.901,119.728,222.127,118.5157,227.1167,121.1809,224.4516,126.1705,231.901,119.728" style="stroke: #000000; stroke-width: 0.5;"/><!--MD5=[80ebf3e134a14a9c8fcaf4e578ab1033]
link authenticate to config--><path d="M480.666,142.343 C509.371,145.561 545.145,149.571 570.483,152.411 " fill="none" id="authenticate-&gt;config" style="stroke: #000000; stroke-width: 0.5;"/><polygon fill="#000000" points="575.726,152.999,567.2278,148.021,570.7571,152.4418,566.3363,155.9712,575.726,152.999" style="stroke: #000000; stroke-width: 0.5;"/><!--MD5=[69e7c3e6d0ac319dd2a1181fe877e6d1]
link authenticate to models/users--><path d="M471.887,128.282 C496.81,122.694 529.306,115.409 555.65,109.503 " fill="none" id="authenticate-&gt;models/users" style="stroke: #000000; stroke-width: 0.5;"/><polygon fill="#000000" points="560.832,108.341,551.1747,106.4078,555.9532,109.4353,552.9257,114.2138,560.832,108.341" style="stroke: #000000; stroke-width: 0.5;"/><!--MD5=[93f45a746529616a154f2fddba54c440]
link models to config--><path d="M464.089,174.781 C494.445,170.662 540.405,164.426 570.926,160.284 " fill="none" id="models-&gt;config" style="stroke: #000000; stroke-width: 0.5;"/><polygon fill="#000000" points="576.062,159.587,566.6056,156.8346,571.1075,160.2599,567.6822,164.7618,576.062,159.587" style="stroke: #000000; stroke-width: 0.5;"/><!--MD5=[0190ce34ac695c236d5e93b8fa4aae9e]
link routes/dishes to authenticate--><path d="M306.762,308.9945 C314.727,305.7807 322.271,301.2854 328,295 C370.054,248.862 316.229,203.475 359,158 C364.615,152.031 371.82,147.727 379.495,144.631 " fill="none" id="routes/dishes-&gt;authenticate" style="stroke: #000000; stroke-width: 0.5;"/><polygon fill="#000000" points="384.325,142.855,374.4975,142.207,379.6322,144.5807,377.2586,149.7154,384.325,142.855" style="stroke: #000000; stroke-width: 0.5;"/><!--MD5=[866c4a426a049efa4065c7f294085834]
link routes/dishes to cors--><path d="M316.801,317 C346.559,317 381.658,317 405.013,317 " fill="none" id="routes/dishes-&gt;cors" style="stroke: #000000; stroke-width: 0.5;"/><polygon fill="#000000" points="410.103,317,401.103,313,405.103,317,401.103,321,410.103,317" style="stroke: #000000; stroke-width: 0.5;"/><!--MD5=[9519543a544ae612625ea520920119d3]
link routes/dishes to services/dishes--><path d="M299.616,327.0945 C325.069,333.6629 358.373,342.2574 385.08,349.1498 " fill="none" id="routes/dishes-&gt;services/dishes" style="stroke: #000000; stroke-width: 0.5;"/><polygon fill="#000000" points="389.987,350.4161,382.271,344.2953,385.1454,349.1675,380.2733,352.0419,389.987,350.4161" style="stroke: #000000; stroke-width: 0.5;"/><!--MD5=[e9129cb5e9ea2111512af41144a18cb2]
link routes/leaders to authenticate--><path d="M276.948,211.408 C295.749,196.466 327.946,172.64 359,158 C367.926,153.792 377.878,150.235 387.465,147.312 " fill="none" id="routes/leaders-&gt;authenticate" style="stroke: #000000; stroke-width: 0.5;"/><polygon fill="#000000" points="392.438,145.841,382.6733,144.5563,387.6431,147.2583,384.941,152.2281,392.438,145.841" style="stroke: #000000; stroke-width: 0.5;"/><!--MD5=[3de2f550169333cc226417d97610b133]
link routes/leaders to cors--><path d="M303.775,234.187 C312.356,237.315 320.897,241.477 328,247 C348.344,262.818 338.411,280.5018 359,296 C372.434,306.1127 390.637,311.3665 405.378,314.0903 " fill="none" id="routes/leaders-&gt;cors" style="stroke: #000000; stroke-width: 0.5;"/><polygon fill="#000000" points="410.637,314.9836,402.4338,309.5332,405.7076,314.1465,401.0943,317.4203,410.637,314.9836" style="stroke: #000000; stroke-width: 0.5;"/><!--MD5=[1011375e12295e0e7139a9c2732b2c2e]
link routes/leaders to services/leaders--><path d="M318.224,224.323 C333.066,224.149 349.155,223.96 364.406,223.781 " fill="none" id="routes/leaders-&gt;services/leaders" style="stroke: #000000; stroke-width: 0.5;"/><polygon fill="#000000" points="369.543,223.721,360.4968,219.8267,364.5433,223.7796,360.5905,227.8261,369.543,223.721" style="stroke: #000000; stroke-width: 0.5;"/><!--MD5=[1ce9b89f32730b39dbc372aab9ecbd10]
link routes/promotions to authenticate--><path d="M309.021,259.807 C316.021,256.562 322.653,252.382 328,247 C357.523,217.287 328.631,186.848 359,158 C365.02,152.282 372.508,148.109 380.359,145.067 " fill="none" id="routes/promotions-&gt;authenticate" style="stroke: #000000; stroke-width: 0.5;"/><polygon fill="#000000" points="385.285,143.316,375.4652,142.5606,380.5736,144.9903,378.144,150.0987,385.285,143.316" style="stroke: #000000; stroke-width: 0.5;"/><!--MD5=[b8c0de48c5a1f2f101a25b71923844be]
link routes/promotions to cors--><path d="M305.297,283.086 C337.856,291.8703 380.664,303.4197 406.984,310.5206 " fill="none" id="routes/promotions-&gt;cors" style="stroke: #000000; stroke-width: 0.5;"/><polygon fill="#000000" points="412.02,311.8793,404.3714,305.6745,407.1924,310.5778,402.2891,313.3987,412.02,311.8793" style="stroke: #000000; stroke-width: 0.5;"/><!--MD5=[baee16691d5567c53a0507fc3c4ab706]
link routes/promotions to services/promotions--><path d="M328.376,271 C336.682,271 345.217,271 353.649,271 " fill="none" id="routes/promotions-&gt;services/promotions" style="stroke: #000000; stroke-width: 0.5;"/><polygon fill="#000000" points="358.882,271,349.882,267,353.882,271,349.882,275,358.882,271" style="stroke: #000000; stroke-width: 0.5;"/><!--MD5=[d7a7f2e1c01fc8a7f9a6b31abc7df07e]
link routes/users to authenticate--><path d="M294.697,81.496 C305.427,84.963 317.27,88.968 328,93 C352.941,102.371 380.689,114.315 401.095,123.393 " fill="none" id="routes/users-&gt;authenticate" style="stroke: #000000; stroke-width: 0.5;"/><polygon fill="#000000" points="405.856,125.519,399.2688,118.1972,401.2904,123.4805,396.0072,125.5021,405.856,125.519" style="stroke: #000000; stroke-width: 0.5;"/><!--MD5=[b4de694d57f136ecc4984252bf916297]
link routes/users to models/users--><path d="M312.071,75.222 C374.36,80.322 478.877,88.879 544.083,94.217 " fill="none" id="routes/users-&gt;models/users" style="stroke: #000000; stroke-width: 0.5;"/><polygon fill="#000000" points="549.098,94.628,540.455,89.9059,544.1147,94.2194,539.8012,97.8791,549.098,94.628" style="stroke: #000000; stroke-width: 0.5;"/><!--MD5=[1a766b2c181ef81faa2fe012331f35c4]
link <b>server</b> to app--><path d="M83,177.084 C83,180.538 83,183.993 83,187.447 " fill="none" id="&lt;b&gt;server&lt;/b&gt;-&gt;app" style="stroke: #000000; stroke-width: 1.0;"/><polygon fill="#000000" points="83,192.875,87,183.875,83,187.875,79,183.875,83,192.875" style="stroke: #000000; stroke-width: 1.0;"/><!--MD5=[b5c98b812da9a52bc7fc4d6c14d50210]
link services/dishes to _models_dishes--><path d="M493.237,361 C510.138,361 528.464,361 545.19,361 " fill="none" id="services/dishes-&gt;_models_dishes" style="stroke: #000000; stroke-width: 0.5;"/><polygon fill="#000000" points="550.326,361,541.326,357,545.326,361,541.326,365,550.326,361" style="stroke: #000000; stroke-width: 0.5;"/><!--MD5=[09a18870dc7ab73bac48f7db15822336]
link services/leaders to _models_leaders--><path d="M494.673,222.636 C510.491,222.543 527.47,222.443 543.167,222.35 " fill="none" id="services/leaders-&gt;_models_leaders" style="stroke: #000000; stroke-width: 0.5;"/><polygon fill="#000000" points="548.438,222.319,539.4142,218.3731,543.4381,222.349,539.4622,226.3729,548.438,222.319" style="stroke: #000000; stroke-width: 0.5;"/><!--MD5=[9c751ce931fb82625344c5948b4ec2f9]
link services/promotions to _models_promotions--><path d="M505.375,271.427 C513.721,271.476 522.23,271.526 530.569,271.576 " fill="none" id="services/promotions-&gt;_models_promotions" style="stroke: #000000; stroke-width: 0.5;"/><polygon fill="#000000" points="535.737,271.606,526.7612,267.5521,530.7371,271.576,526.7132,275.5519,535.737,271.606" style="stroke: #000000; stroke-width: 0.5;"/><!--MD5=[4b9f649026795f9d57f57595c12aa861]
link upload to authenticate--><path d="M289.038,117.85 C313.861,121.198 350.425,126.131 380.228,130.151 " fill="none" id="upload-&gt;authenticate" style="stroke: #000000; stroke-width: 0.5;"/><polygon fill="#000000" points="385.329,130.839,376.9446,125.6716,380.3739,130.1705,375.875,133.5998,385.329,130.839" style="stroke: #000000; stroke-width: 0.5;"/><!--MD5=[b8a7fba48d8cdbcefe329ae85c82e298]
link <b>error_with_status.d</b> to <b>request_user.d</b>--><!--MD5=[fa27c7c0d28091972ed63f4fba129440]
link <b>error_with_status.d</b> to <b>services/users</b>--><script type="text/plantuml"><![CDATA[MD5=[17220fd43a38738e51faa536602aa678]
@startuml

scale max 1920 width
left to right direction

skinparam nodesep 16
skinparam ranksep 31
skinparam monochrome true
skinparam shadowing false
skinparam defaultFontName Tahoma
skinparam defaultFontSize 12
skinparam roundCorner 6
skinparam dpi 150
skinparam arrowColor black
skinparam arrowThickness 0.5
skinparam packageTitleAlignment left

skinparam usecase {
  borderThickness 0.5
}

skinparam rectangle {
  borderThickness 0.5
}

skinparam component {
  borderThickness 1
}


(app)
(authenticate)
(config)
(cors)
(<b>error_with_status.d</b>)
(models)
rectangle "models/dishes" as _models_dishes
rectangle "models/leaders" as _models_leaders
rectangle "models/promotions" as _models_promotions
(models/users)
(<b>request_user.d</b>)
(routes)
(routes/dishes)
(routes/leaders)
(routes/promotions)
(routes/users)
(<b>server</b>)
(services/dishes)
(services/leaders)
(services/promotions)
(<b>services/users</b>)
(upload)


(app) --> (authenticate)
(app) --> (models)
(app) --> (routes)
(app) --> (routes/dishes)
(app) --> (routes/leaders)
(app) --> (routes/promotions)
(app) --> (routes/users)
(app) --> (upload)
(authenticate) --> (config)
(authenticate) --> (models/users)
(models) --> (config)
(routes/dishes) --> (authenticate)
(routes/dishes) --> (cors)
(routes/dishes) --> (services/dishes)
(routes/leaders) --> (authenticate)
(routes/leaders) --> (cors)
(routes/leaders) --> (services/leaders)
(routes/promotions) --> (authenticate)
(routes/promotions) --> (cors)
(routes/promotions) --> (services/promotions)
(routes/users) --> (authenticate)
(routes/users) --> (models/users)
(<b>server</b>) -[thickness=1]> (app)
(services/dishes) --> _models_dishes
(services/leaders) --> _models_leaders
(services/promotions) --> _models_promotions
(upload) --> (authenticate)

@enduml


' View and edit on https://arkit.pro
]]></script></g></svg>